<svg width="108" height="53" viewBox="0 0 108 53" fill="none" xmlns="http://www.w3.org/2000/svg">
<g filter="url(#filter0_d_90_90)">
<path d="M4 10C4 4.47715 8.47715 0 14 0H94C99.5228 0 104 4.47715 104 10V35C104 40.5228 99.5229 45 94 45H14C8.47716 45 4 40.5228 4 35V10Z" fill="white"/>
<path d="M14 0.5H94C99.2467 0.5 103.5 4.7533 103.5 10V35C103.5 40.2467 99.2467 44.5 94 44.5H14C8.7533 44.5 4.5 40.2467 4.5 35V10C4.5 4.7533 8.7533 0.5 14 0.5Z" stroke="#F94F2F"/>
</g>
<defs>
<filter id="filter0_d_90_90" x="0" y="0" width="108" height="53" filterUnits="userSpaceOnUse" color-interpolation-filters="sRGB">
<feFlood flood-opacity="0" result="BackgroundImageFix"/>
<feColorMatrix in="SourceAlpha" type="matrix" values="0 0 0 0 0 0 0 0 0 0 0 0 0 0 0 0 0 0 127 0" result="hardAlpha"/>
<feOffset dy="4"/>
<feGaussianBlur stdDeviation="2"/>
<feComposite in2="hardAlpha" operator="out"/>
<feColorMatrix type="matrix" values="0 0 0 0 0 0 0 0 0 0 0 0 0 0 0 0 0 0 0.25 0"/>
<feBlend mode="normal" in2="BackgroundImageFix" result="effect1_dropShadow_90_90"/>
<feBlend mode="normal" in="SourceGraphic" in2="effect1_dropShadow_90_90" result="shape"/>
</filter>
</defs>
</svg>
