<svg width="18" height="28" viewBox="0 0 18 28" fill="none" xmlns="http://www.w3.org/2000/svg">
<path fill-rule="evenodd" clip-rule="evenodd" d="M9 28C13.98 28 18 26 18 23V4C18 2 14 0 9 0C4 0 0 2 0 4V11C2.34 11.98 4.34 13.62 5.76 15.7C6.74 15.892 7.82 15.998 9 15.998C11.62 15.998 13.8 15.476 15.36 14.626C15.5815 14.5043 15.797 14.3721 16.006 14.23V16.99C16.006 17.46 15.632 18.19 14.402 18.862C13.21 19.512 11.382 19.99 9.002 19.99C8.526 19.99 8.07267 19.972 7.642 19.936C7.802 20.5933 7.90867 21.2667 7.962 21.956C8.29933 21.9747 8.646 21.984 9.002 21.984C11.622 21.984 13.802 21.462 15.362 20.612C15.5835 20.4903 15.799 20.3581 16.008 20.216V22.976C16.008 23.448 15.71 24.148 14.426 24.84C13.162 25.52 11.266 25.976 9.006 25.976C8.546 25.976 8.10067 25.9573 7.67 25.92C7.51625 26.5848 7.30959 27.2362 7.052 27.868C7.68133 27.9387 8.332 27.974 9.004 27.974L9 28ZM14.4 12.88C15.63 12.208 16.004 11.478 16.004 11.008V8.248C15.7973 8.38933 15.582 8.52133 15.358 8.644C13.802 9.494 11.618 10.016 8.998 10.016C6.378 10.016 4.198 9.494 2.638 8.644C2.41653 8.52228 2.20096 8.39013 1.992 8.248V11.008C1.992 11.478 2.366 12.208 3.596 12.878C4.788 13.528 6.616 14.006 8.996 14.006C11.376 14.006 13.196 13.528 14.396 12.878L14.4 12.88ZM2 5C2 4.424 2.25 3.87 2.716 3.532C2.97 3.348 3.246 3.164 3.464 3.064C4.01 2.812 6.744 1.998 9.004 1.998C11.264 1.998 13.224 2.452 14.544 3.064C14.792 3.178 15.066 3.356 15.308 3.532C15.77 3.866 16.008 4.416 16.008 4.986V4.998C16.008 5.468 15.634 6.198 14.404 6.87C13.212 7.52 11.384 7.998 9.004 7.998C6.624 7.998 4.804 7.518 3.604 6.87C2.374 6.2 2 5.468 2 5Z" fill="black"/>
</svg>
